<svg width="46" height="46" viewBox="0 0 46 46" fill="none" xmlns="http://www.w3.org/2000/svg">
<path d="M40.25 0H5.75C2.57887 0 0 2.57887 0 5.75V40.25C0 43.4211 2.57887 46 5.75 46H40.25C43.4211 46 46 43.4211 46 40.25V5.75C46 2.57887 43.4211 0 40.25 0Z" fill="#00BB48"/>
<g clip-path="url(#clip0_690_193)">
<path d="M37.047 18.3684L23.2745 9.41602L9.50195 18.3684L23.2745 27.3197L32.5841 21.2684V27.0963H34.9116V19.7567L37.047 18.3684Z" fill="white"/>
<path d="M15.1279 28.8412V24.5762L23.2739 29.8711L31.4199 24.5762V28.8412C31.4199 30.5518 30.2399 31.8843 28.798 32.7256C27.3271 33.5844 25.3709 34.0779 23.2739 34.0779C21.1769 34.0779 19.2219 33.5844 17.7498 32.7256C16.3079 31.8843 15.1279 30.5518 15.1279 28.8412Z" fill="white"/>
</g>
<defs>
<clipPath id="clip0_690_193">
<rect width="27.929" height="27.929" fill="white" transform="translate(9.30957 8.47656)"/>
</clipPath>
</defs>
</svg>
