<svg width="27" height="38" viewBox="0 0 27 38" fill="none" xmlns="http://www.w3.org/2000/svg">
<path d="M13.5 0.00253486C12.3552 -0.0257348 11.2165 0.182695 10.1508 0.615564C9.08517 1.04843 8.11411 1.697 7.29476 2.52311C6.47541 3.34922 5.82431 4.3362 5.37977 5.42598C4.93523 6.51576 4.70623 7.68634 4.70623 8.86886C4.70623 10.0514 4.93523 11.222 5.37977 12.3117C5.82431 13.4015 6.47541 14.3885 7.29476 15.2146C8.11411 16.0407 9.08517 16.6893 10.1508 17.1222C11.2165 17.555 12.3552 17.7635 13.5 17.7352C14.6448 17.7635 15.7835 17.555 16.8492 17.1222C17.9148 16.6893 18.8859 16.0407 19.7052 15.2146C20.5246 14.3885 21.1757 13.4015 21.6202 12.3117C22.0648 11.222 22.2938 10.0514 22.2938 8.86886C22.2938 7.68634 22.0648 6.51576 21.6202 5.42598C21.1757 4.3362 20.5246 3.34922 19.7052 2.52311C18.8859 1.697 17.9148 1.04843 16.8492 0.615564C15.7835 0.182695 14.6448 -0.0257348 13.5 0.00253486ZM8.59091 22.7995C6.31246 22.7995 4.12733 23.7342 2.51622 25.3979C0.905111 27.0616 0 29.3181 0 31.6709V38H27V31.6709C27 29.3181 26.0949 27.0616 24.4838 25.3979C22.8727 23.7342 20.6875 22.7995 18.4091 22.7995H8.59091Z" fill="#383F7A"/>
</svg>
