<svg width="51" height="37" viewBox="0 0 51 37" fill="none" xmlns="http://www.w3.org/2000/svg">
<path d="M12.2709 0.30961C15.5727 1.15604e-07 19.8197 0 25.31 0H25.5038C30.9917 0 35.2388 1.15604e-07 38.5405 0.30961C41.8659 0.623946 44.4893 1.26916 46.5974 2.74395C48.7907 4.28018 49.8519 6.31509 50.3482 8.90541C50.8138 11.3256 50.8138 14.3909 50.8138 18.1393V18.4939C50.8138 22.2423 50.8138 25.3076 50.3482 27.7278C49.8519 30.3181 48.7907 32.353 46.5974 33.8893C44.4893 35.364 41.8659 36.0093 38.5381 36.3236C35.2388 36.6332 30.9917 36.6332 25.5038 36.6332H25.31C19.8221 36.6332 15.575 36.6332 12.2733 36.3236C8.94796 36.0093 6.32455 35.364 4.21636 33.8893C2.0231 32.353 0.961917 30.3181 0.465596 27.7278C-1.84967e-07 25.3076 0 22.2423 0 18.4939V18.1393C0 14.3909 -1.84967e-07 11.3256 0.465596 8.90541C0.961917 6.31509 2.0231 4.28018 4.21636 2.74395C6.32455 1.26916 8.94796 0.623946 12.2757 0.30961M24.3646 11.0963C23.7611 10.6952 23.0239 10.5479 22.3126 10.6864C21.6013 10.8248 20.9732 11.2379 20.5642 11.8361C20.257 12.2875 20.0915 12.824 20.0915 13.3723V23.2609C20.0913 23.7564 20.2254 24.2427 20.4795 24.6681C20.7336 25.0935 21.0982 25.442 21.5346 25.6767C21.971 25.9114 22.4629 26.0234 22.9579 26.0009C23.4528 25.9784 23.9325 25.8221 24.3457 25.5487L31.8496 20.647C32.229 20.4001 32.5411 20.0628 32.7577 19.6653C32.9744 19.2679 33.0888 18.8228 33.0907 18.3702C33.0925 17.9175 32.9818 17.4715 32.7685 17.0723C32.5552 16.6731 32.2459 16.3332 31.8685 16.0832L24.3646 11.0963Z" fill="#CE0606"/>
</svg>
