<svg width="12" height="13" viewBox="0 0 12 13" fill="none" xmlns="http://www.w3.org/2000/svg">
<path d="M7.97781 5.75525L7.63013 6.8137C7.50086 7.21589 7.28109 7.58144 6.9885 7.88095C6.69591 8.18047 6.33867 8.4056 5.9455 8.53822L4.8988 8.89375C4.86341 8.90546 4.83257 8.92834 4.81069 8.9591C4.78881 8.98986 4.77702 9.02692 4.77702 9.06495C4.77702 9.10299 4.78881 9.14004 4.81069 9.1708C4.83257 9.20156 4.86341 9.22444 4.8988 9.23616L5.9455 9.59168C6.33508 9.72425 6.68904 9.94791 6.97926 10.2449C7.26948 10.5419 7.48794 10.904 7.6173 11.3025L7.96437 12.374C7.97549 12.4105 7.99774 12.4425 8.02786 12.4651C8.05798 12.4878 8.09439 12.5 8.13179 12.5C8.16918 12.5 8.2056 12.4878 8.23572 12.4651C8.26584 12.4425 8.28809 12.4105 8.29921 12.374L8.65972 11.3156C8.78901 10.9172 9.00739 10.5551 9.2975 10.2581C9.5876 9.96115 9.94144 9.73745 10.3309 9.6048L11.3782 9.24928C11.4136 9.23756 11.4445 9.21468 11.4663 9.18392C11.4882 9.15317 11.5 9.11611 11.5 9.07807C11.5 9.04004 11.4882 9.00298 11.4663 8.97222C11.4445 8.94147 11.4136 8.91859 11.3782 8.90687L10.3443 8.53822C9.95095 8.40604 9.59348 8.18107 9.30083 7.88149C9.00818 7.58191 8.78856 7.21612 8.65972 6.8137L8.31204 5.74213C8.30217 5.71574 8.28641 5.69208 8.266 5.67303C8.24559 5.65398 8.22111 5.64008 8.19452 5.63243C8.16792 5.62478 8.13994 5.6236 8.11282 5.62898C8.08569 5.63435 8.06018 5.64614 8.0383 5.6634C8.00945 5.68725 7.98836 5.71887 7.97781 5.75525ZM2.82678 2.68547L2.57442 3.45464C2.48029 3.74714 2.32035 4.01298 2.10746 4.23078C1.89458 4.44858 1.63469 4.61226 1.34868 4.70866L0.587332 4.96734C0.561881 4.97611 0.539763 4.99283 0.524095 5.01514C0.508428 5.03744 0.5 5.06422 0.5 5.09168C0.5 5.11915 0.508428 5.14592 0.524095 5.16822C0.539763 5.19053 0.561881 5.20725 0.587332 5.21602L1.34868 5.47532C1.63199 5.57156 1.88943 5.73407 2.10052 5.94992C2.31161 6.16578 2.47053 6.42903 2.56464 6.71873L2.817 7.49851C2.82558 7.52454 2.84193 7.54716 2.86374 7.56318C2.88556 7.5792 2.91174 7.58782 2.9386 7.58782C2.96546 7.58782 2.99164 7.5792 3.01345 7.56318C3.03527 7.54716 3.05161 7.52454 3.06019 7.49851L3.32294 6.72873C3.41747 6.43926 3.57654 6.17624 3.78758 5.96044C3.99861 5.74465 4.25582 5.58199 4.5389 5.48532L5.29964 5.22602C5.32509 5.21725 5.34721 5.20053 5.36288 5.17822C5.37854 5.15592 5.38697 5.12914 5.38697 5.10168C5.38697 5.07421 5.37854 5.04744 5.36288 5.02514C5.34721 5.00283 5.32509 4.98611 5.29964 4.97734L4.54807 4.70866C4.26194 4.61262 4.00195 4.44905 3.78911 4.23119C3.57628 4.01334 3.41658 3.74731 3.32294 3.45464L3.06997 2.67548C3.06042 2.64975 3.0432 2.62775 3.02074 2.61258C2.99829 2.59741 2.97174 2.58984 2.94485 2.59095C2.91797 2.59205 2.8921 2.60177 2.87091 2.61874C2.84972 2.6357 2.83428 2.65905 2.82678 2.68547ZM7.6228 0.547318L7.49631 0.932211C7.44956 1.07857 7.36978 1.21163 7.26342 1.32061C7.15705 1.42959 7.02709 1.51144 6.88405 1.55954L6.50338 1.68888C6.49385 1.69205 6.48518 1.69748 6.47809 1.70473C6.471 1.71198 6.46569 1.72084 6.46259 1.73059C6.4595 1.74034 6.4587 1.7507 6.46026 1.76082C6.46183 1.77095 6.46572 1.78055 6.47161 1.78885C6.47925 1.80036 6.49043 1.80894 6.50338 1.81322L6.88405 1.94256C7.02571 1.99067 7.15443 2.07193 7.25997 2.17986C7.36552 2.28778 7.44498 2.41941 7.49203 2.56426L7.61791 2.95415C7.62205 2.96739 7.63021 2.97894 7.64119 2.98714C7.65217 2.99534 7.66542 2.99975 7.67901 2.99975C7.69261 2.99975 7.70585 2.99534 7.71684 2.98714C7.72782 2.97894 7.73597 2.96739 7.74012 2.95415L7.87088 2.56926C7.91793 2.42441 7.99739 2.29278 8.10294 2.18485C8.20849 2.07693 8.3372 1.99567 8.47886 1.94755L8.85953 1.81821C8.87248 1.81398 8.88378 1.80564 8.89179 1.79441C8.89981 1.78318 8.90413 1.76964 8.90413 1.75573C8.90413 1.74183 8.89981 1.72829 8.89179 1.71705C8.88378 1.70582 8.87248 1.69749 8.85953 1.69325L8.48375 1.55954C8.34059 1.51152 8.21051 1.42971 8.10404 1.32073C7.99756 1.21174 7.91769 1.07864 7.87088 0.932211L7.74439 0.542319C7.73962 0.529456 7.73101 0.518454 7.71978 0.510869C7.70855 0.503284 7.69528 0.4995 7.68184 0.500053C7.66839 0.500606 7.65546 0.505467 7.64486 0.513949C7.63427 0.52243 7.62655 0.534104 7.6228 0.547318Z" stroke="white" stroke-linecap="round" stroke-linejoin="round"/>
</svg>
