<svg width="46" height="46" viewBox="0 0 46 46" fill="none" xmlns="http://www.w3.org/2000/svg">
<path d="M11.6645 45.8368C9.88527 45.8169 8.12277 45.4906 6.45437 44.8721C5.23603 44.4218 4.13374 43.7048 3.22809 42.7737C2.29446 41.8699 1.57647 40.7673 1.12744 39.5479C0.509492 37.8796 0.183629 36.1172 0.164155 34.3382C0.0275095 31.3807 0 30.4936 0 22.9998C0 15.5059 0.0302154 14.622 0.162802 11.6622C0.18464 9.88394 0.510903 8.12252 1.12744 6.45437C1.57866 5.23583 2.29563 4.1331 3.22628 3.22628C4.13082 2.2935 5.23363 1.57617 6.45302 1.12744C8.12141 0.508979 9.88391 0.182658 11.6631 0.162802C14.6215 0.0275095 15.51 0 22.9998 0C30.4896 0 31.3776 0.0302154 34.3373 0.162802C36.1161 0.184485 37.878 0.510751 39.5465 1.12744C40.7654 1.57676 41.8679 2.29384 42.7728 3.22583C43.7051 4.13105 44.4225 5.23384 44.8721 6.45302C45.4907 8.12139 45.8172 9.88389 45.8372 11.6631C45.9725 14.6229 46 15.5091 46 23.0007C46 30.4923 45.9725 31.3785 45.8372 34.3382C45.8157 36.1172 45.4893 37.8793 44.8721 39.5479C44.4053 40.7579 43.6902 41.8568 42.773 42.7738C41.8558 43.6908 40.7567 44.4056 39.5465 44.8721C37.8782 45.4907 36.1157 45.8172 34.3364 45.8372C31.3794 45.9725 30.4905 46 22.9989 46C15.5073 46 14.6211 45.9738 11.664 45.8372" fill="url(#paint0_radial_690_189)"/>
<path d="M11.6645 45.8368C9.88527 45.8169 8.12277 45.4906 6.45437 44.8721C5.23603 44.4218 4.13374 43.7048 3.22809 42.7737C2.29446 41.8699 1.57647 40.7673 1.12744 39.5479C0.509492 37.8796 0.183629 36.1172 0.164155 34.3382C0.0275095 31.3807 0 30.4936 0 22.9998C0 15.5059 0.0302154 14.622 0.162802 11.6622C0.18464 9.88394 0.510903 8.12252 1.12744 6.45437C1.57866 5.23583 2.29563 4.1331 3.22628 3.22628C4.13082 2.2935 5.23363 1.57617 6.45302 1.12744C8.12141 0.508979 9.88391 0.182658 11.6631 0.162802C14.6215 0.0275095 15.51 0 22.9998 0C30.4896 0 31.3776 0.0302154 34.3373 0.162802C36.1161 0.184485 37.878 0.510751 39.5465 1.12744C40.7654 1.57676 41.8679 2.29384 42.7728 3.22583C43.7051 4.13105 44.4225 5.23384 44.8721 6.45302C45.4907 8.12139 45.8172 9.88389 45.8372 11.6631C45.9725 14.6229 46 15.5091 46 23.0007C46 30.4923 45.9725 31.3785 45.8372 34.3382C45.8157 36.1172 45.4893 37.8793 44.8721 39.5479C44.4053 40.7579 43.6902 41.8568 42.773 42.7738C41.8558 43.6908 40.7567 44.4056 39.5465 44.8721C37.8782 45.4907 36.1157 45.8172 34.3364 45.8372C31.3794 45.9725 30.4905 46 22.9989 46C15.5073 46 14.6211 45.9738 11.664 45.8372" fill="url(#paint1_radial_690_189)"/>
<path d="M17.3534 23.0977C17.3535 21.9711 17.6877 20.8698 18.3137 19.933C18.9397 18.9963 19.8294 18.2663 20.8703 17.8353C21.9113 17.4042 23.0566 17.2915 24.1616 17.5114C25.2666 17.7314 26.2815 18.274 27.078 19.0707C27.8746 19.8675 28.417 20.8826 28.6367 21.9876C28.8563 23.0926 28.7434 24.2379 28.3121 25.2787C27.8808 26.3196 27.1505 27.2091 26.2137 27.8349C25.2768 28.4607 24.1754 28.7946 23.0488 28.7944C21.5381 28.7942 20.0894 28.1939 19.0213 27.1255C17.9533 26.0572 17.3533 24.6084 17.3534 23.0977ZM14.2737 23.0977C14.2737 24.8332 14.7884 26.5298 15.7526 27.9729C16.7168 29.4159 18.0873 30.5407 19.6907 31.2048C21.2942 31.869 23.0585 32.0428 24.7607 31.7042C26.4629 31.3656 28.0265 30.5298 29.2537 29.3026C30.4809 28.0754 31.3167 26.5118 31.6553 24.8096C31.9939 23.1074 31.8201 21.343 31.1559 19.7396C30.4918 18.1362 29.367 16.7657 27.924 15.8015C26.4809 14.8372 24.7843 14.3226 23.0488 14.3226C21.8964 14.3225 20.7553 14.5495 19.6906 14.9904C18.626 15.4314 17.6586 16.0778 16.8437 16.8926C16.0289 17.7075 15.3825 18.6749 14.9416 19.7395C14.5006 20.8042 14.2736 21.9453 14.2737 23.0977ZM30.1206 13.9749C30.1204 14.3805 30.2405 14.777 30.4656 15.1143C30.6908 15.4516 31.011 15.7146 31.3856 15.87C31.7602 16.0253 32.1725 16.0661 32.5703 15.9872C32.9681 15.9082 33.3336 15.7131 33.6205 15.4264C33.9074 15.1398 34.1028 14.7745 34.1821 14.3767C34.2614 13.979 34.221 13.5667 34.066 13.1919C33.9109 12.8171 33.6483 12.4968 33.3111 12.2713C32.974 12.0458 32.5776 11.9254 32.172 11.9252C31.6284 11.9255 31.1071 12.1415 30.7226 12.5258C30.3381 12.9101 30.1219 13.4313 30.1214 13.9749M16.1457 37.008C15.0621 36.9961 13.9885 36.7978 12.9722 36.4218C12.2351 36.1377 11.5657 35.7024 11.007 35.1439C10.4483 34.5855 10.0127 33.9162 9.72831 33.1793C9.3521 32.1629 9.15378 31.0894 9.14205 30.0057C9.05907 28.2045 9.04283 27.6634 9.04283 23.0999C9.04283 18.5365 9.06087 17.9967 9.14205 16.1937C9.15519 15.1102 9.35347 14.0369 9.72831 13.0202C10.0124 12.2829 10.4478 11.6133 11.0065 11.0546C11.5653 10.4958 12.2349 10.0604 12.9722 9.77631C13.9885 9.40011 15.062 9.20179 16.1457 9.19005C17.9469 9.10707 18.4881 9.09083 23.0497 9.09083C27.6113 9.09083 28.1529 9.10843 29.9559 9.1905C31.0395 9.20365 32.1128 9.40192 33.1295 9.77677C33.8668 10.0609 34.5364 10.4963 35.0951 11.055C35.6538 11.6137 36.0892 12.2833 36.3733 13.0206C36.7495 14.037 36.9478 15.1105 36.9596 16.1942C37.0426 17.9981 37.0588 18.5365 37.0588 23.1004C37.0588 27.6643 37.0421 28.2036 36.9596 30.0066C36.947 31.0902 36.7487 32.1636 36.3733 33.1802C36.0889 33.9171 35.6534 34.5864 35.0947 35.1448C34.536 35.7033 33.8665 36.1386 33.1295 36.4227C32.1131 36.7989 31.0396 36.9972 29.9559 37.009C28.1547 37.0919 27.6136 37.1082 23.0497 37.1082C18.4858 37.1082 17.9465 37.0915 16.1457 37.009M16.0041 6.11304C14.5862 6.14092 13.1832 6.4093 11.8551 6.90675C10.7198 7.34572 9.68871 8.01708 8.828 8.8778C7.96728 9.73852 7.29591 10.7696 6.85694 11.9049C6.35956 13.2331 6.09118 14.636 6.06324 16.0539C5.9789 17.8758 5.95996 18.4585 5.95996 23.0995C5.95996 27.7405 5.97935 28.3227 6.06324 30.1451C6.09118 31.563 6.35955 32.9659 6.85694 34.2941C7.29594 35.4294 7.96731 36.4604 8.82802 37.3212C9.68874 38.1819 10.7198 38.8533 11.8551 39.2922C13.1833 39.7895 14.5862 40.0579 16.0041 40.086C17.8269 40.1689 18.4087 40.1892 23.0497 40.1892C27.6907 40.1892 28.2729 40.1698 30.0953 40.086C31.5132 40.058 32.9161 39.7896 34.2443 39.2922C35.3796 38.8533 36.4106 38.1819 37.2714 37.3212C38.1321 36.4604 38.8035 35.4294 39.2424 34.2941C39.7405 32.9661 40.0089 31.5631 40.0362 30.1451C40.1191 28.3218 40.1381 27.7405 40.1381 23.0995C40.1381 18.4585 40.1187 17.8763 40.0362 16.0539C40.0083 14.636 39.7399 13.233 39.2424 11.9049C38.8035 10.7698 38.1323 9.73889 37.2718 8.8782C36.4114 8.01751 35.3806 7.34602 34.2456 6.90675C32.9176 6.40897 31.5146 6.14059 30.0966 6.11304C28.2743 6.02961 27.692 6.00977 23.052 6.00977C18.4119 6.00977 17.8283 6.02916 16.005 6.11304" fill="white"/>
<defs>
<radialGradient id="paint0_radial_690_189" cx="0" cy="0" r="1" gradientUnits="userSpaceOnUse" gradientTransform="translate(2.97689 44.9921) scale(58.4023)">
<stop offset="0.09" stop-color="#FA8F21"/>
<stop offset="0.78" stop-color="#D82D7E"/>
</radialGradient>
<radialGradient id="paint1_radial_690_189" cx="0" cy="0" r="1" gradientUnits="userSpaceOnUse" gradientTransform="translate(31.8624 43.5147) scale(51.3946)">
<stop offset="0.64" stop-color="#8C3AAA" stop-opacity="0"/>
<stop offset="1" stop-color="#8C3AAA"/>
</radialGradient>
</defs>
</svg>
